<?xml version="1.0" encoding="utf-8"?>
<!-- Generator: Adobe Illustrator 24.0.2, SVG Export Plug-In . SVG Version: 6.00 Build 0)  -->
<svg version="1.1" id="Layer_1" xmlns="http://www.w3.org/2000/svg" xmlns:xlink="http://www.w3.org/1999/xlink" x="0px" y="0px"
	 viewBox="0 0 512 512" style="enable-background:new 0 0 512 512;" xml:space="preserve">
<style type="text/css">
	.st0{clip-path:url(#SVGID_2_);fill:#4B2568;}
	.st1{clip-path:url(#SVGID_2_);fill:none;stroke:#9E6487;stroke-width:9.3327;stroke-linecap:round;stroke-miterlimit:10;}
	.st2{fill:none;stroke:#9E6487;stroke-width:9.3327;stroke-linecap:round;stroke-miterlimit:10;}
</style>
<g>
	<g>
		<defs>
			<path id="SVGID_1_" d="M299.2188,99.8762c25.6025,61.0743-3.1494,131.3326-64.2243,156.9427
				c-61.0741,25.6025-131.34-3.1495-156.9268-64.2245c-25.6025-61.0667,3.1336-131.3243,64.2086-156.9351
				C203.3503,10.0568,273.6162,38.8095,299.2188,99.8762z"/>
		</defs>
		<clipPath id="SVGID_2_">
			<use xlink:href="#SVGID_1_"  style="overflow:visible;"/>
		</clipPath>
		<path class="st0" d="M299.2188,99.8762c25.6025,61.0743-3.1494,131.3326-64.2243,156.9427
			c-61.0741,25.6025-131.34-3.1495-156.9268-64.2245c-25.6025-61.0667,3.1336-131.3243,64.2086-156.9351
			C203.3503,10.0568,273.6162,38.8095,299.2188,99.8762z"/>
		<path class="st1" d="M278.317,65.034c0,0,27.4123,54.5812,30.1092,97.4348"/>
		<path class="st1" d="M246.7863,40.4008c0,0,56.9398,102.7974,41.9009,172.9986"/>
		<path class="st1" d="M223.6226,30.7973c0,0,68.6184,142.3652,42.8704,207.0981"/>
		<line class="st1" x1="264.5221" y1="145.1284" x2="162.5965" y2="266.2603"/>
		<line class="st1" x1="144.6184" y1="257.7559" x2="256.5586" y2="126.1488"/>
		<line class="st1" x1="185.8569" y1="265.6549" x2="268.7218" y2="170.8526"/>
		<line class="st1" x1="272.2433" y1="199.4027" x2="211.1038" y2="264.0397"/>
		<line class="st1" x1="268.8516" y1="230.8615" x2="241.5529" y2="258.257"/>
		<path class="st1" d="M249.274,134.9682c0,0-45.0834-72.3813-122.1657-92.944"/>
		<path class="st1" d="M105.9643,54.5911c0,0,79.4245,24.9244,127.6251,93.3568"/>
		<path class="st1" d="M222.3954,166.3212c0,0-46.1818-76.7027-129.6611-96.2555"/>
		<path class="st1" d="M81.0557,85.1361c0,0,71.7844,14.2713,126.8178,93.1466"/>
		<path class="st1" d="M77.1305,102.1697c0,0,87.7114,36.0944,116.981,92.509"/>
		<path class="st1" d="M71.0576,122.7646c0,0,65.9207,17.8169,112.7639,88.899"/>
		<path class="st1" d="M159.414,182.0787c0,0-7.7857,15.7088,8.5127,48.2576"/>
		<path class="st1" d="M142.7609,165.4735c0,0-22.211,32.9847,11.5172,80.9272"/>
		<path class="st1" d="M121.406,147.9479c0,0-25.6828,53.773,18.528,111.7623"/>
		<path class="st1" d="M100.1329,142.2776c0,0-20.4336,41.4568,4.8621,92.8638"/>
		<path class="st1" d="M79.8449,127.8856c0,0-9.5307,16.8474-7.6244,47.1105"/>
		<path class="st1" d="M251.3573,99.892c0,0-15.0544,0.1134-21.1928,10.2172"/>
		<path class="st1" d="M245.0578,80.589c0,0-13.6494-1.4134-30.7715,12.8903"/>
		<path class="st1" d="M233.9607,58.3872c0,0-22.6145,3.5372-33.9697,20.8777"/>
		<path class="st1" d="M224.1884,40.5216c0,0-36.942,9.9987-42.8868,26.3856"/>
		<path class="st1" d="M205.9191,27.5751c0,0-15.4102,1.5747-46.9567,26.475"/>
		<path class="st1" d="M135.9601,44.6567c0,0,11.7597-13.3665,27.3634-20.6196"/>
	</g>
	<path class="st2" d="M290.5449,172.9525c0,0,55.4213,12.1715,38.7673,62.4883c-16.6541,50.3243-37.976,179.4843,24.7788,122.4238
		c0,0,30.8525-36.7081,42.9993,5.742c12.1475,42.4344,34.8422,126.5837,64.871,74.8452"/>
</g>
</svg>
